<svg width="20" height="22" viewBox="0 0 20 22" fill="none" xmlns="http://www.w3.org/2000/svg">
<path d="M10 12.9014C11.864 12.9014 13.375 11.4482 13.375 9.65551C13.375 7.86284 11.864 6.40959 10 6.40959C8.13604 6.40959 6.625 7.86284 6.625 9.65551C6.625 11.4482 8.13604 12.9014 10 12.9014Z" stroke="black" stroke-width="2" stroke-linecap="round" stroke-linejoin="round"/>
<path d="M16.3641 15.7762L11.5907 20.367C11.1689 20.7723 10.5969 21 10.0006 21C9.40422 21 8.83227 20.7723 8.41038 20.367L3.63588 15.7762C2.37725 14.5656 1.52013 13.0233 1.1729 11.3443C0.825673 9.66522 1.00393 7.92486 1.68513 6.34325C2.36633 4.76164 3.51989 3.40982 4.99992 2.45873C6.47995 1.50764 8.21999 1 10 1C11.78 1 13.5201 1.50764 15.0001 2.45873C16.4801 3.40982 17.6337 4.76164 18.3149 6.34325C18.9961 7.92486 19.1743 9.66522 18.8271 11.3443C18.4799 13.0233 17.6227 14.5656 16.3641 15.7762Z" stroke="black" stroke-width="2" stroke-linecap="round" stroke-linejoin="round"/>
</svg>
