<svg width="60" height="60" viewBox="0 0 60 60" fill="none" xmlns="http://www.w3.org/2000/svg">
<path d="M29.625 4C24.1569 4.00645 18.9146 6.18151 15.0481 10.048C11.1815 13.9146 9.00647 19.1569 9.00002 24.625C8.99347 29.0935 10.4531 33.4408 13.155 37C13.155 37 13.7175 37.7406 13.8094 37.8475L29.625 56.5L45.4481 37.8381C45.5306 37.7388 46.095 37 46.095 37L46.0969 36.9944C48.7975 33.4368 50.2564 29.0915 50.25 24.625C50.2436 19.1569 48.0685 13.9146 44.202 10.048C40.3354 6.18151 35.0931 4.00645 29.625 4ZM29.625 32.125C28.1417 32.125 26.6916 31.6851 25.4582 30.861C24.2249 30.0369 23.2636 28.8656 22.6959 27.4951C22.1283 26.1247 21.9797 24.6167 22.2691 23.1618C22.5585 21.707 23.2728 20.3706 24.3217 19.3217C25.3706 18.2728 26.707 17.5585 28.1618 17.2691C29.6167 16.9797 31.1247 17.1282 32.4951 17.6959C33.8656 18.2636 35.0369 19.2249 35.861 20.4582C36.6852 21.6916 37.125 23.1416 37.125 24.625C37.1225 26.6134 36.3316 28.5196 34.9256 29.9256C33.5196 31.3315 31.6134 32.1225 29.625 32.125Z" fill="white"/>
</svg>
